<?xml version="1.0" ?><!DOCTYPE svg  PUBLIC '-//W3C//DTD SVG 1.0//EN'  'http://www.w3.org/TR/2001/REC-SVG-20010904/DTD/svg10.dtd'><svg enable-background="new 0 0 100 100" height="100px" id="Layer_1" version="1.0" viewBox="0 0 100 100" width="100px" xml:space="preserve" xmlns="http://www.w3.org/2000/svg" xmlns:xlink="http://www.w3.org/1999/xlink"><path d="M50,36.667c-7.363,0-13.333,5.97-13.333,13.333c0,7.366,5.97,13.333,13.333,13.333c7.36,0,13.333-5.967,13.333-13.333  C63.333,42.637,57.36,36.667,50,36.667z"/><path d="M65.41,62.747c-2.995,3.617-7.246,6.14-12.077,6.953v6.735c7.292-0.911,13.652-4.763,17.888-10.335L65.41,62.747z"/><path d="M53.333,30.3c4.831,0.813,9.082,3.336,12.077,6.953l5.811-3.354c-4.235-5.572-10.596-9.424-17.888-10.335V30.3z"/><path d="M70,50c0,2.454-0.462,4.792-1.272,6.963l5.855,3.382c1.342-3.18,2.084-6.676,2.084-10.345s-0.742-7.161-2.084-10.345  l-5.855,3.379C69.538,45.208,70,47.546,70,50z"/><path d="M30,50c0-2.454,0.462-4.792,1.27-6.966l-5.853-3.379c-1.342,3.18-2.084,6.676-2.084,10.345s0.742,7.165,2.084,10.345  l5.853-3.382C30.462,54.792,30,52.454,30,50z"/><path d="M46.667,69.7c-4.831-0.813-9.082-3.336-12.077-6.953l-5.813,3.356c4.238,5.573,10.599,9.421,17.891,10.332V69.7z"/><path d="M34.59,37.253c2.995-3.617,7.243-6.14,12.077-6.953v-6.738c-7.295,0.911-13.656,4.766-17.891,10.338L34.59,37.253z"/><path d="M16.667,46.667c0.97-9.763,6.165-18.256,13.711-23.698l-3.354-5.808C17.5,23.789,11.009,34.44,10,46.667H16.667z"/><path d="M36.315,19.629c4.176-1.888,8.802-2.962,13.685-2.962s9.505,1.074,13.685,2.962l3.34-5.784C61.853,11.406,56.097,10,50,10  c-6.101,0-11.855,1.403-17.024,3.841L36.315,19.629z"/><path d="M69.622,22.969c7.546,5.442,12.744,13.938,13.711,23.698H90c-1.009-12.227-7.5-22.878-17.024-29.506L69.622,22.969z"/><path d="M30.378,77.031c-7.546-5.442-12.741-13.936-13.711-23.698H10c1.009,12.224,7.5,22.878,17.024,29.506L30.378,77.031z"/><path d="M63.685,80.371c-4.18,1.888-8.802,2.962-13.685,2.962s-9.505-1.074-13.685-2.962l-3.34,5.784C38.145,88.597,43.899,90,50,90  c6.097,0,11.853-1.403,17.024-3.845L63.685,80.371z"/><path d="M83.333,53.333c-0.97,9.76-6.165,18.252-13.707,23.695l3.353,5.807C82.5,76.208,88.991,65.557,90,53.333H83.333z"/></svg>